<mxfile host="app.diagrams.net" agent="Mozilla/5.0 (Windows NT 10.0; Win64; x64) AppleWebKit/537.36 (KHTML, like Gecko) Chrome/133.0.0.0 Safari/537.36" version="26.0.15">
  <diagram id="C5RBs43oDa-KdzZeNtuy" name="Page-1">
    <mxGraphModel dx="1985" dy="1060" grid="0" gridSize="10" guides="1" tooltips="1" connect="1" arrows="1" fold="1" page="1" pageScale="1" pageWidth="827" pageHeight="1169" math="0" shadow="0">
      <root>
        <mxCell id="WIyWlLk6GJQsqaUBKTNV-0" />
        <mxCell id="WIyWlLk6GJQsqaUBKTNV-1" parent="WIyWlLk6GJQsqaUBKTNV-0" />
        <mxCell id="KfCUXBT-5sUuQCjFBgNx-6" style="edgeStyle=orthogonalEdgeStyle;rounded=0;orthogonalLoop=1;jettySize=auto;html=1;entryX=0.5;entryY=0;entryDx=0;entryDy=0;endArrow=none;startFill=0;" edge="1" parent="WIyWlLk6GJQsqaUBKTNV-1" source="KfCUXBT-5sUuQCjFBgNx-0" target="KfCUXBT-5sUuQCjFBgNx-3">
          <mxGeometry relative="1" as="geometry" />
        </mxCell>
        <mxCell id="KfCUXBT-5sUuQCjFBgNx-0" value="Начало" style="ellipse;whiteSpace=wrap;html=1;" vertex="1" parent="WIyWlLk6GJQsqaUBKTNV-1">
          <mxGeometry x="500" y="80" width="120" height="80" as="geometry" />
        </mxCell>
        <mxCell id="KfCUXBT-5sUuQCjFBgNx-7" style="edgeStyle=orthogonalEdgeStyle;rounded=0;orthogonalLoop=1;jettySize=auto;html=1;exitX=0.5;exitY=1;exitDx=0;exitDy=0;entryX=0.5;entryY=0;entryDx=0;entryDy=0;endArrow=none;startFill=0;" edge="1" parent="WIyWlLk6GJQsqaUBKTNV-1" source="KfCUXBT-5sUuQCjFBgNx-3" target="KfCUXBT-5sUuQCjFBgNx-4">
          <mxGeometry relative="1" as="geometry" />
        </mxCell>
        <mxCell id="KfCUXBT-5sUuQCjFBgNx-3" value="Ввод суммы вклада" style="shape=parallelogram;perimeter=parallelogramPerimeter;html=1;fixedSize=1;whiteSpace=wrap;labelBorderColor=none;rounded=0;gradientColor=none;labelPosition=center;verticalLabelPosition=middle;align=center;verticalAlign=middle;labelBackgroundColor=default;" vertex="1" parent="WIyWlLk6GJQsqaUBKTNV-1">
          <mxGeometry x="500" y="200" width="120" height="60" as="geometry" />
        </mxCell>
        <mxCell id="KfCUXBT-5sUuQCjFBgNx-8" style="edgeStyle=orthogonalEdgeStyle;rounded=0;orthogonalLoop=1;jettySize=auto;html=1;exitX=0.5;exitY=1;exitDx=0;exitDy=0;entryX=0.5;entryY=0;entryDx=0;entryDy=0;endArrow=none;startFill=0;" edge="1" parent="WIyWlLk6GJQsqaUBKTNV-1" source="KfCUXBT-5sUuQCjFBgNx-4" target="KfCUXBT-5sUuQCjFBgNx-5">
          <mxGeometry relative="1" as="geometry" />
        </mxCell>
        <mxCell id="KfCUXBT-5sUuQCjFBgNx-4" value="Ввод процентов" style="shape=parallelogram;perimeter=parallelogramPerimeter;whiteSpace=wrap;html=1;fixedSize=1;" vertex="1" parent="WIyWlLk6GJQsqaUBKTNV-1">
          <mxGeometry x="500" y="300" width="120" height="60" as="geometry" />
        </mxCell>
        <mxCell id="KfCUXBT-5sUuQCjFBgNx-11" style="edgeStyle=orthogonalEdgeStyle;rounded=0;orthogonalLoop=1;jettySize=auto;html=1;exitX=0.5;exitY=1;exitDx=0;exitDy=0;entryX=0.5;entryY=0;entryDx=0;entryDy=0;endArrow=none;startFill=0;" edge="1" parent="WIyWlLk6GJQsqaUBKTNV-1" source="KfCUXBT-5sUuQCjFBgNx-5" target="KfCUXBT-5sUuQCjFBgNx-10">
          <mxGeometry relative="1" as="geometry" />
        </mxCell>
        <mxCell id="KfCUXBT-5sUuQCjFBgNx-5" value="Ввод количества&lt;div&gt;месяцев&lt;/div&gt;" style="shape=parallelogram;perimeter=parallelogramPerimeter;whiteSpace=wrap;html=1;fixedSize=1;" vertex="1" parent="WIyWlLk6GJQsqaUBKTNV-1">
          <mxGeometry x="500" y="390" width="120" height="60" as="geometry" />
        </mxCell>
        <mxCell id="KfCUXBT-5sUuQCjFBgNx-13" style="edgeStyle=orthogonalEdgeStyle;rounded=0;orthogonalLoop=1;jettySize=auto;html=1;exitX=0;exitY=0.5;exitDx=0;exitDy=0;entryX=0.5;entryY=0;entryDx=0;entryDy=0;jumpStyle=none;startArrow=none;startFill=0;endArrow=none;" edge="1" parent="WIyWlLk6GJQsqaUBKTNV-1" source="KfCUXBT-5sUuQCjFBgNx-10" target="KfCUXBT-5sUuQCjFBgNx-12">
          <mxGeometry relative="1" as="geometry" />
        </mxCell>
        <mxCell id="KfCUXBT-5sUuQCjFBgNx-22" style="edgeStyle=orthogonalEdgeStyle;rounded=0;orthogonalLoop=1;jettySize=auto;html=1;exitX=1;exitY=0.5;exitDx=0;exitDy=0;entryX=0.5;entryY=0;entryDx=0;entryDy=0;endArrow=none;startFill=0;" edge="1" parent="WIyWlLk6GJQsqaUBKTNV-1" source="KfCUXBT-5sUuQCjFBgNx-10" target="KfCUXBT-5sUuQCjFBgNx-21">
          <mxGeometry relative="1" as="geometry" />
        </mxCell>
        <mxCell id="KfCUXBT-5sUuQCjFBgNx-10" value="Верно ли&lt;div&gt;введены&lt;/div&gt;&lt;div&gt;данные&lt;/div&gt;" style="rhombus;whiteSpace=wrap;html=1;rounded=0;labelBorderColor=none;labelBackgroundColor=default;" vertex="1" parent="WIyWlLk6GJQsqaUBKTNV-1">
          <mxGeometry x="520" y="480" width="80" height="80" as="geometry" />
        </mxCell>
        <mxCell id="KfCUXBT-5sUuQCjFBgNx-15" style="edgeStyle=orthogonalEdgeStyle;rounded=0;orthogonalLoop=1;jettySize=auto;html=1;exitX=0.5;exitY=1;exitDx=0;exitDy=0;entryX=0.5;entryY=0;entryDx=0;entryDy=0;endArrow=none;startFill=0;" edge="1" parent="WIyWlLk6GJQsqaUBKTNV-1" source="KfCUXBT-5sUuQCjFBgNx-12" target="KfCUXBT-5sUuQCjFBgNx-14">
          <mxGeometry relative="1" as="geometry" />
        </mxCell>
        <mxCell id="KfCUXBT-5sUuQCjFBgNx-12" value="Вычисление месячной процентной ставки" style="rounded=0;whiteSpace=wrap;html=1;" vertex="1" parent="WIyWlLk6GJQsqaUBKTNV-1">
          <mxGeometry x="413" y="585" width="120" height="60" as="geometry" />
        </mxCell>
        <mxCell id="KfCUXBT-5sUuQCjFBgNx-20" style="edgeStyle=orthogonalEdgeStyle;rounded=0;orthogonalLoop=1;jettySize=auto;html=1;entryX=0.5;entryY=0;entryDx=0;entryDy=0;endArrow=none;startFill=0;" edge="1" parent="WIyWlLk6GJQsqaUBKTNV-1" source="KfCUXBT-5sUuQCjFBgNx-14" target="KfCUXBT-5sUuQCjFBgNx-19">
          <mxGeometry relative="1" as="geometry" />
        </mxCell>
        <mxCell id="KfCUXBT-5sUuQCjFBgNx-14" value="Вычисление итоговой суммы вклада по формуле капитализации" style="rounded=0;whiteSpace=wrap;html=1;" vertex="1" parent="WIyWlLk6GJQsqaUBKTNV-1">
          <mxGeometry x="413" y="680" width="120" height="60" as="geometry" />
        </mxCell>
        <mxCell id="KfCUXBT-5sUuQCjFBgNx-18" value="Конец" style="ellipse;whiteSpace=wrap;html=1;" vertex="1" parent="WIyWlLk6GJQsqaUBKTNV-1">
          <mxGeometry x="500" y="900" width="120" height="80" as="geometry" />
        </mxCell>
        <mxCell id="KfCUXBT-5sUuQCjFBgNx-24" style="edgeStyle=orthogonalEdgeStyle;rounded=0;orthogonalLoop=1;jettySize=auto;html=1;exitX=0.5;exitY=1;exitDx=0;exitDy=0;entryX=0.5;entryY=0;entryDx=0;entryDy=0;" edge="1" parent="WIyWlLk6GJQsqaUBKTNV-1" source="KfCUXBT-5sUuQCjFBgNx-19" target="KfCUXBT-5sUuQCjFBgNx-18">
          <mxGeometry relative="1" as="geometry" />
        </mxCell>
        <mxCell id="KfCUXBT-5sUuQCjFBgNx-19" value="Вывод&lt;div&gt;результат&lt;/div&gt;" style="shape=parallelogram;perimeter=parallelogramPerimeter;whiteSpace=wrap;html=1;fixedSize=1;" vertex="1" parent="WIyWlLk6GJQsqaUBKTNV-1">
          <mxGeometry x="413" y="780" width="120" height="60" as="geometry" />
        </mxCell>
        <mxCell id="KfCUXBT-5sUuQCjFBgNx-25" style="edgeStyle=orthogonalEdgeStyle;rounded=0;orthogonalLoop=1;jettySize=auto;html=1;exitX=0.5;exitY=1;exitDx=0;exitDy=0;entryX=0.5;entryY=0;entryDx=0;entryDy=0;" edge="1" parent="WIyWlLk6GJQsqaUBKTNV-1" source="KfCUXBT-5sUuQCjFBgNx-21" target="KfCUXBT-5sUuQCjFBgNx-18">
          <mxGeometry relative="1" as="geometry" />
        </mxCell>
        <mxCell id="KfCUXBT-5sUuQCjFBgNx-21" value="Сообщение об&lt;div&gt;ошибке&lt;/div&gt;" style="rounded=0;whiteSpace=wrap;html=1;" vertex="1" parent="WIyWlLk6GJQsqaUBKTNV-1">
          <mxGeometry x="590" y="680" width="120" height="60" as="geometry" />
        </mxCell>
      </root>
    </mxGraphModel>
  </diagram>
</mxfile>
